<svg width="100" height="364" viewBox="0 0 100 364" fill="none" xmlns="http://www.w3.org/2000/svg">
	<circle cx="98" cy="2" r="2" fill="white" />
	<circle cx="98" cy="98" r="2" fill="white" />
	<circle cx="98" cy="50" r="2" fill="white" />
	<circle cx="98" cy="146" r="2" fill="white" />
	<circle cx="98" cy="26" r="2" fill="white" />
	<circle cx="98" cy="122" r="2" fill="white" />
	<circle cx="98" cy="74" r="2" fill="white" />
	<circle cx="98" cy="170" r="2" fill="white" />
	<circle cx="98" cy="194" r="2" fill="white" />
	<circle cx="98" cy="290" r="2" fill="white" />
	<circle cx="98" cy="242" r="2" fill="white" />
	<circle cx="98" cy="338" r="2" fill="white" />
	<circle cx="98" cy="218" r="2" fill="white" />
	<circle cx="98" cy="314" r="2" fill="white" />
	<circle cx="98" cy="266" r="2" fill="white" />
	<circle cx="98" cy="362" r="2" fill="white" />
	<circle cx="2" cy="2" r="2" fill="white" />
	<circle cx="2" cy="98" r="2" fill="white" />
	<circle cx="2" cy="50" r="2" fill="white" />
	<circle cx="2" cy="146" r="2" fill="white" />
	<circle cx="2" cy="26" r="2" fill="white" />
	<circle cx="2" cy="122" r="2" fill="white" />
	<circle cx="2" cy="74" r="2" fill="white" />
	<circle cx="2" cy="170" r="2" fill="white" />
	<circle cx="2" cy="194" r="2" fill="white" />
	<circle cx="2" cy="290" r="2" fill="white" />
	<circle cx="2" cy="242" r="2" fill="white" />
	<circle cx="2" cy="338" r="2" fill="white" />
	<circle cx="2" cy="218" r="2" fill="white" />
	<circle cx="2" cy="314" r="2" fill="white" />
	<circle cx="2" cy="266" r="2" fill="white" />
	<circle cx="2" cy="362" r="2" fill="white" />
	<circle cx="50" cy="2" r="2" fill="white" />
	<circle cx="50" cy="98" r="2" fill="white" />
	<circle cx="50" cy="50" r="2" fill="white" />
	<circle cx="50" cy="146" r="2" fill="white" />
	<circle cx="50" cy="26" r="2" fill="white" />
	<circle cx="50" cy="122" r="2" fill="white" />
	<circle cx="50" cy="74" r="2" fill="white" />
	<circle cx="50" cy="170" r="2" fill="white" />
	<circle cx="50" cy="194" r="2" fill="white" />
	<circle cx="50" cy="290" r="2" fill="white" />
	<circle cx="50" cy="242" r="2" fill="white" />
	<circle cx="50" cy="338" r="2" fill="white" />
	<circle cx="50" cy="218" r="2" fill="white" />
	<circle cx="50" cy="314" r="2" fill="white" />
	<circle cx="50" cy="266" r="2" fill="white" />
	<circle cx="50" cy="362" r="2" fill="white" />
	<circle cx="74" cy="2" r="2" fill="white" />
	<circle cx="74" cy="98" r="2" fill="white" />
	<circle cx="74" cy="50" r="2" fill="white" />
	<circle cx="74" cy="146" r="2" fill="white" />
	<circle cx="74" cy="26" r="2" fill="white" />
	<circle cx="74" cy="122" r="2" fill="white" />
	<circle cx="74" cy="74" r="2" fill="white" />
	<circle cx="74" cy="170" r="2" fill="white" />
	<circle cx="74" cy="194" r="2" fill="white" />
	<circle cx="74" cy="290" r="2" fill="white" />
	<circle cx="74" cy="242" r="2" fill="white" />
	<circle cx="74" cy="338" r="2" fill="white" />
	<circle cx="74" cy="218" r="2" fill="white" />
	<circle cx="74" cy="314" r="2" fill="white" />
	<circle cx="74" cy="266" r="2" fill="white" />
	<circle cx="74" cy="362" r="2" fill="white" />
	<circle cx="26" cy="2" r="2" fill="white" />
	<circle cx="26" cy="98" r="2" fill="white" />
	<circle cx="26" cy="50" r="2" fill="white" />
	<circle cx="26" cy="146" r="2" fill="white" />
	<circle cx="26" cy="26" r="2" fill="white" />
	<circle cx="26" cy="122" r="2" fill="white" />
	<circle cx="26" cy="74" r="2" fill="white" />
	<circle cx="26" cy="170" r="2" fill="white" />
	<circle cx="26" cy="194" r="2" fill="white" />
	<circle cx="26" cy="290" r="2" fill="white" />
	<circle cx="26" cy="242" r="2" fill="white" />
	<circle cx="26" cy="338" r="2" fill="white" />
	<circle cx="26" cy="218" r="2" fill="white" />
	<circle cx="26" cy="314" r="2" fill="white" />
	<circle cx="26" cy="266" r="2" fill="white" />
	<circle cx="26" cy="362" r="2" fill="white" />
</svg>
