<svg xmlns="http://www.w3.org/2000/svg" width="347" height="364" viewBox="0 0 347 364" fill="none">
	<circle cx="266" cy="2" r="2" fill="white" />
	<circle cx="266" cy="98" r="2" fill="white" />
	<circle cx="266" cy="50" r="2" fill="white" />
	<circle cx="266" cy="146" r="2" fill="white" />
	<circle cx="266" cy="26" r="2" fill="white" />
	<circle cx="266" cy="122" r="2" fill="white" />
	<circle cx="266" cy="74" r="2" fill="white" />
	<circle cx="266" cy="170" r="2" fill="white" />
	<circle cx="266" cy="194" r="2" fill="white" />
	<circle cx="266" cy="290" r="2" fill="white" />
	<circle cx="266" cy="242" r="2" fill="white" />
	<circle cx="266" cy="338" r="2" fill="white" />
	<circle cx="266" cy="218" r="2" fill="white" />
	<circle cx="266" cy="314" r="2" fill="white" />
	<circle cx="266" cy="266" r="2" fill="white" />
	<circle cx="266" cy="362" r="2" fill="white" />
	<circle cx="314" cy="2" r="2" fill="white" />
	<circle cx="314" cy="98" r="2" fill="white" />
	<circle cx="314" cy="50" r="2" fill="white" />
	<circle cx="314" cy="146" r="2" fill="white" />
	<circle cx="314" cy="26" r="2" fill="white" />
	<circle cx="314" cy="122" r="2" fill="white" />
	<circle cx="314" cy="74" r="2" fill="white" />
	<circle cx="314" cy="170" r="2" fill="white" />
	<circle cx="314" cy="194" r="2" fill="white" />
	<circle cx="314" cy="290" r="2" fill="white" />
	<circle cx="314" cy="242" r="2" fill="white" />
	<circle cx="314" cy="338" r="2" fill="white" />
	<circle cx="314" cy="218" r="2" fill="white" />
	<circle cx="314" cy="314" r="2" fill="white" />
	<circle cx="314" cy="266" r="2" fill="white" />
	<circle cx="314" cy="362" r="2" fill="white" />
	<circle cx="218" cy="2" r="2" fill="white" />
	<circle cx="218" cy="98" r="2" fill="white" />
	<circle cx="218" cy="50" r="2" fill="white" />
	<circle cx="218" cy="146" r="2" fill="white" />
	<circle cx="218" cy="26" r="2" fill="white" />
	<circle cx="218" cy="122" r="2" fill="white" />
	<circle cx="218" cy="74" r="2" fill="white" />
	<circle cx="218" cy="170" r="2" fill="white" />
	<circle cx="218" cy="194" r="2" fill="white" />
	<circle cx="218" cy="290" r="2" fill="white" />
	<circle cx="218" cy="242" r="2" fill="white" />
	<circle cx="218" cy="338" r="2" fill="white" />
	<circle cx="218" cy="218" r="2" fill="white" />
	<circle cx="218" cy="314" r="2" fill="white" />
	<circle cx="218" cy="266" r="2" fill="white" />
	<circle cx="218" cy="362" r="2" fill="white" />
	<circle cx="338" cy="2" r="2" fill="white" />
	<circle cx="338" cy="98" r="2" fill="white" />
	<circle cx="338" cy="50" r="2" fill="white" />
	<circle cx="338" cy="146" r="2" fill="white" />
	<circle cx="338" cy="26" r="2" fill="white" />
	<circle cx="338" cy="122" r="2" fill="white" />
	<circle cx="338" cy="74" r="2" fill="white" />
	<circle cx="338" cy="170" r="2" fill="white" />
	<circle cx="338" cy="194" r="2" fill="white" />
	<circle cx="338" cy="290" r="2" fill="white" />
	<circle cx="338" cy="242" r="2" fill="white" />
	<circle cx="338" cy="338" r="2" fill="white" />
	<circle cx="338" cy="218" r="2" fill="white" />
	<circle cx="338" cy="314" r="2" fill="white" />
	<circle cx="338" cy="266" r="2" fill="white" />
	<circle cx="338" cy="362" r="2" fill="white" />
	<circle cx="242" cy="2" r="2" fill="white" />
	<circle cx="242" cy="98" r="2" fill="white" />
	<circle cx="242" cy="50" r="2" fill="white" />
	<circle cx="242" cy="146" r="2" fill="white" />
	<circle cx="242" cy="26" r="2" fill="white" />
	<circle cx="242" cy="122" r="2" fill="white" />
	<circle cx="242" cy="74" r="2" fill="white" />
	<circle cx="242" cy="170" r="2" fill="white" />
	<circle cx="242" cy="194" r="2" fill="white" />
	<circle cx="242" cy="290" r="2" fill="white" />
	<circle cx="242" cy="242" r="2" fill="white" />
	<circle cx="242" cy="338" r="2" fill="white" />
	<circle cx="242" cy="218" r="2" fill="white" />
	<circle cx="242" cy="314" r="2" fill="white" />
	<circle cx="242" cy="266" r="2" fill="white" />
	<circle cx="242" cy="362" r="2" fill="white" />
	<circle cx="290" cy="2" r="2" fill="white" />
	<circle cx="290" cy="98" r="2" fill="white" />
	<circle cx="290" cy="50" r="2" fill="white" />
	<circle cx="290" cy="146" r="2" fill="white" />
	<circle cx="290" cy="26" r="2" fill="white" />
	<circle cx="290" cy="122" r="2" fill="white" />
	<circle cx="290" cy="74" r="2" fill="white" />
	<circle cx="290" cy="170" r="2" fill="white" />
	<circle cx="290" cy="194" r="2" fill="white" />
	<circle cx="290" cy="290" r="2" fill="white" />
	<circle cx="290" cy="242" r="2" fill="white" />
	<circle cx="290" cy="338" r="2" fill="white" />
	<circle cx="290" cy="218" r="2" fill="white" />
	<circle cx="290" cy="314" r="2" fill="white" />
	<circle cx="290" cy="266" r="2" fill="white" />
	<circle cx="290" cy="362" r="2" fill="white" />
	<circle cx="194" cy="2" r="2" fill="white" />
	<circle cx="194" cy="98" r="2" fill="white" />
	<circle cx="194" cy="50" r="2" fill="white" />
	<circle cx="194" cy="146" r="2" fill="white" />
	<circle cx="194" cy="26" r="2" fill="white" />
	<circle cx="194" cy="122" r="2" fill="white" />
	<circle cx="194" cy="74" r="2" fill="white" />
	<circle cx="194" cy="170" r="2" fill="white" />
	<circle cx="194" cy="194" r="2" fill="white" />
	<circle cx="194" cy="290" r="2" fill="white" />
	<circle cx="194" cy="242" r="2" fill="white" />
	<circle cx="194" cy="338" r="2" fill="white" />
	<circle cx="194" cy="218" r="2" fill="white" />
	<circle cx="194" cy="314" r="2" fill="white" />
	<circle cx="194" cy="266" r="2" fill="white" />
	<circle cx="194" cy="362" r="2" fill="white" />
	<circle cx="170" cy="2" r="2" fill="white" />
	<circle cx="170" cy="98" r="2" fill="white" />
	<circle cx="170" cy="50" r="2" fill="white" />
	<circle cx="170" cy="146" r="2" fill="white" />
	<circle cx="170" cy="26" r="2" fill="white" />
	<circle cx="170" cy="122" r="2" fill="white" />
	<circle cx="170" cy="74" r="2" fill="white" />
	<circle cx="170" cy="170" r="2" fill="white" />
	<circle cx="170" cy="194" r="2" fill="white" />
	<circle cx="170" cy="290" r="2" fill="white" />
	<circle cx="170" cy="242" r="2" fill="white" />
	<circle cx="170" cy="338" r="2" fill="white" />
	<circle cx="170" cy="218" r="2" fill="white" />
	<circle cx="170" cy="314" r="2" fill="white" />
	<circle cx="170" cy="266" r="2" fill="white" />
	<circle cx="170" cy="362" r="2" fill="white" />
	<circle cx="74" cy="2" r="2" fill="white" />
	<circle cx="74" cy="98" r="2" fill="white" />
	<circle cx="74" cy="50" r="2" fill="white" />
	<circle cx="74" cy="146" r="2" fill="white" />
	<circle cx="74" cy="26" r="2" fill="white" />
	<circle cx="74" cy="122" r="2" fill="white" />
	<circle cx="74" cy="74" r="2" fill="white" />
	<circle cx="74" cy="170" r="2" fill="white" />
	<circle cx="74" cy="194" r="2" fill="white" />
	<circle cx="74" cy="290" r="2" fill="white" />
	<circle cx="74" cy="242" r="2" fill="white" />
	<circle cx="74" cy="338" r="2" fill="white" />
	<circle cx="74" cy="218" r="2" fill="white" />
	<circle cx="74" cy="314" r="2" fill="white" />
	<circle cx="74" cy="266" r="2" fill="white" />
	<circle cx="74" cy="362" r="2" fill="white" />
	<circle cx="122" cy="2" r="2" fill="white" />
	<circle cx="122" cy="98" r="2" fill="white" />
	<circle cx="122" cy="50" r="2" fill="white" />
	<circle cx="122" cy="146" r="2" fill="white" />
	<circle cx="122" cy="26" r="2" fill="white" />
	<circle cx="122" cy="122" r="2" fill="white" />
	<circle cx="122" cy="74" r="2" fill="white" />
	<circle cx="122" cy="170" r="2" fill="white" />
	<circle cx="122" cy="194" r="2" fill="white" />
	<circle cx="122" cy="290" r="2" fill="white" />
	<circle cx="122" cy="242" r="2" fill="white" />
	<circle cx="122" cy="338" r="2" fill="white" />
	<circle cx="122" cy="218" r="2" fill="white" />
	<circle cx="122" cy="314" r="2" fill="white" />
	<circle cx="122" cy="266" r="2" fill="white" />
	<circle cx="122" cy="362" r="2" fill="white" />
	<circle cx="26" cy="2" r="2" fill="white" />
	<circle cx="26" cy="98" r="2" fill="white" />
	<circle cx="26" cy="50" r="2" fill="white" />
	<circle cx="26" cy="146" r="2" fill="white" />
	<circle cx="26" cy="26" r="2" fill="white" />
	<circle cx="26" cy="122" r="2" fill="white" />
	<circle cx="26" cy="74" r="2" fill="white" />
	<circle cx="26" cy="170" r="2" fill="white" />
	<circle cx="26" cy="194" r="2" fill="white" />
	<circle cx="26" cy="290" r="2" fill="white" />
	<circle cx="26" cy="242" r="2" fill="white" />
	<circle cx="26" cy="338" r="2" fill="white" />
	<circle cx="26" cy="218" r="2" fill="white" />
	<circle cx="26" cy="314" r="2" fill="white" />
	<circle cx="26" cy="266" r="2" fill="white" />
	<circle cx="26" cy="362" r="2" fill="white" />
	<circle cx="146" cy="2" r="2" fill="white" />
	<circle cx="146" cy="98" r="2" fill="white" />
	<circle cx="146" cy="50" r="2" fill="white" />
	<circle cx="146" cy="146" r="2" fill="white" />
	<circle cx="146" cy="26" r="2" fill="white" />
	<circle cx="146" cy="122" r="2" fill="white" />
	<circle cx="146" cy="74" r="2" fill="white" />
	<circle cx="146" cy="170" r="2" fill="white" />
	<circle cx="146" cy="194" r="2" fill="white" />
	<circle cx="146" cy="290" r="2" fill="white" />
	<circle cx="146" cy="242" r="2" fill="white" />
	<circle cx="146" cy="338" r="2" fill="white" />
	<circle cx="146" cy="218" r="2" fill="white" />
	<circle cx="146" cy="314" r="2" fill="white" />
	<circle cx="146" cy="266" r="2" fill="white" />
	<circle cx="146" cy="362" r="2" fill="white" />
	<circle cx="50" cy="2" r="2" fill="white" />
	<circle cx="50" cy="98" r="2" fill="white" />
	<circle cx="50" cy="50" r="2" fill="white" />
	<circle cx="50" cy="146" r="2" fill="white" />
	<circle cx="50" cy="26" r="2" fill="white" />
	<circle cx="50" cy="122" r="2" fill="white" />
	<circle cx="50" cy="74" r="2" fill="white" />
	<circle cx="50" cy="170" r="2" fill="white" />
	<circle cx="50" cy="194" r="2" fill="white" />
	<circle cx="50" cy="290" r="2" fill="white" />
	<circle cx="50" cy="242" r="2" fill="white" />
	<circle cx="50" cy="338" r="2" fill="white" />
	<circle cx="50" cy="218" r="2" fill="white" />
	<circle cx="50" cy="314" r="2" fill="white" />
	<circle cx="50" cy="266" r="2" fill="white" />
	<circle cx="50" cy="362" r="2" fill="white" />
	<circle cx="98" cy="2" r="2" fill="white" />
	<circle cx="98" cy="98" r="2" fill="white" />
	<circle cx="98" cy="50" r="2" fill="white" />
	<circle cx="98" cy="146" r="2" fill="white" />
	<circle cx="98" cy="26" r="2" fill="white" />
	<circle cx="98" cy="122" r="2" fill="white" />
	<circle cx="98" cy="74" r="2" fill="white" />
	<circle cx="98" cy="170" r="2" fill="white" />
	<circle cx="98" cy="194" r="2" fill="white" />
	<circle cx="98" cy="290" r="2" fill="white" />
	<circle cx="98" cy="242" r="2" fill="white" />
	<circle cx="98" cy="338" r="2" fill="white" />
	<circle cx="98" cy="218" r="2" fill="white" />
	<circle cx="98" cy="314" r="2" fill="white" />
	<circle cx="98" cy="266" r="2" fill="white" />
	<circle cx="98" cy="362" r="2" fill="white" />
	<circle cx="2" cy="2" r="2" fill="white" />
	<circle cx="2" cy="98" r="2" fill="white" />
	<circle cx="2" cy="50" r="2" fill="white" />
	<circle cx="2" cy="146" r="2" fill="white" />
	<circle cx="2" cy="26" r="2" fill="white" />
	<circle cx="2" cy="122" r="2" fill="white" />
	<circle cx="2" cy="74" r="2" fill="white" />
	<circle cx="2" cy="170" r="2" fill="white" />
	<circle cx="2" cy="194" r="2" fill="white" />
	<circle cx="2" cy="290" r="2" fill="white" />
	<circle cx="2" cy="242" r="2" fill="white" />
	<circle cx="2" cy="338" r="2" fill="white" />
	<circle cx="2" cy="218" r="2" fill="white" />
	<circle cx="2" cy="314" r="2" fill="white" />
	<circle cx="2" cy="266" r="2" fill="white" />
	<circle cx="2" cy="362" r="2" fill="white" />
</svg>
