<svg width="585" height="391" viewBox="0 0 585 391" fill="none" xmlns="http://www.w3.org/2000/svg">
	<rect width="585" height="391" rx="16" fill="url(#paint0_linear_449_1128)" />
	<path d="M245.88 72.72H259.56V78H240.36V44.4H245.88V72.72ZM273.899 78.624C270.379 78.624 267.387 77.408 264.923 74.976C262.459 72.544 261.227 69.552 261.227 66C261.227 62.448 262.459 59.456 264.923 57.024C267.387 54.592 270.379 53.376 273.899 53.376C277.451 53.376 280.443 54.592 282.875 57.024C285.339 59.456 286.571 62.448 286.571 66C286.571 69.552 285.339 72.544 282.875 74.976C280.443 77.408 277.451 78.624 273.899 78.624ZM268.571 71.424C270.011 72.864 271.787 73.584 273.899 73.584C276.011 73.584 277.787 72.864 279.227 71.424C280.667 69.984 281.387 68.176 281.387 66C281.387 63.824 280.667 62.016 279.227 60.576C277.787 59.136 276.011 58.416 273.899 58.416C271.787 58.416 270.011 59.136 268.571 60.576C267.131 62.016 266.411 63.824 266.411 66C266.411 68.176 267.131 69.984 268.571 71.424ZM310.362 54H315.45V76.896C315.45 80.544 314.25 83.344 311.85 85.296C309.45 87.248 306.538 88.224 303.114 88.224C297.578 88.224 293.786 86.288 291.738 82.416L296.202 79.824C297.45 82.288 299.786 83.52 303.21 83.52C305.45 83.52 307.194 82.928 308.442 81.744C309.722 80.592 310.362 78.976 310.362 76.896V73.968C308.41 76.752 305.626 78.144 302.01 78.144C298.618 78.144 295.754 76.944 293.418 74.544C291.082 72.112 289.914 69.184 289.914 65.76C289.914 62.336 291.082 59.424 293.418 57.024C295.754 54.592 298.618 53.376 302.01 53.376C305.626 53.376 308.41 54.768 310.362 57.552V54ZM297.258 71.136C298.73 72.576 300.554 73.296 302.73 73.296C304.906 73.296 306.714 72.576 308.154 71.136C309.626 69.696 310.362 67.904 310.362 65.76C310.362 63.616 309.626 61.824 308.154 60.384C306.714 58.944 304.906 58.224 302.73 58.224C300.554 58.224 298.73 58.944 297.258 60.384C295.818 61.824 295.098 63.616 295.098 65.76C295.098 67.904 295.818 69.696 297.258 71.136ZM332.821 78.624C329.301 78.624 326.309 77.408 323.845 74.976C321.381 72.544 320.149 69.552 320.149 66C320.149 62.448 321.381 59.456 323.845 57.024C326.309 54.592 329.301 53.376 332.821 53.376C336.373 53.376 339.365 54.592 341.797 57.024C344.261 59.456 345.493 62.448 345.493 66C345.493 69.552 344.261 72.544 341.797 74.976C339.365 77.408 336.373 78.624 332.821 78.624ZM327.493 71.424C328.933 72.864 330.709 73.584 332.821 73.584C334.933 73.584 336.709 72.864 338.149 71.424C339.589 69.984 340.309 68.176 340.309 66C340.309 63.824 339.589 62.016 338.149 60.576C336.709 59.136 334.933 58.416 332.821 58.416C330.709 58.416 328.933 59.136 327.493 60.576C326.053 62.016 325.333 63.824 325.333 66C325.333 68.176 326.053 69.984 327.493 71.424Z" fill="#969696" />
	<path d="M72 152C72 143.163 79.1634 136 88 136H497C505.837 136 513 143.163 513 152V391H72V152Z" fill="white" />
	<defs>
		<linearGradient id="paint0_linear_449_1128" x1="0" y1="0" x2="585.459" y2="390.312" gradientUnits="userSpaceOnUse">
			<stop stop-color="#EFE9DD" />
			<stop offset="1" stop-color="#DBC9B1" />
		</linearGradient>
	</defs>
</svg>
