<svg width="585" height="604" viewBox="0 0 585 604" fill="none" xmlns="http://www.w3.org/2000/svg">
	<g filter="url(#filter0_f_449_1128)">
	<ellipse cx="292.002" cy="477" rx="192" ry="27" fill="black" fill-opacity="0.5"/>
	</g>
	<rect x="129.567" y="0.739746" width="337" height="337" transform="rotate(10.959 129.567 0.739746)" fill="white"/>
	<path d="M176.116 283.762C171.957 305.238 182.984 326.372 211.172 331.83C238.688 337.158 257.88 324.86 263.561 295.522L280.715 206.933L254.733 201.902L237.634 290.203C234.812 304.776 227.881 311.292 215.417 308.879C204.2 306.707 199.496 298.634 201.139 288.607L176.116 283.762ZM281.368 304.242C278.224 322.533 286.434 346.404 324.4 353.755C355.943 359.863 379.239 348.459 384.215 322.765C388.745 299.371 374.726 287.008 356.176 279.039L336.76 270.405C325.469 265.533 320.372 258.976 321.895 251.114C323.956 240.472 334.153 235.583 348.055 238.275C363.778 241.32 369.855 251.548 368.824 261.495L393.176 266.21C397.341 242.647 380.178 223.408 352.087 217.968C325.146 212.752 300.557 222.612 295.619 248.115C291.367 270.071 304.643 283.185 321.792 290.684L341.112 299.299C354.037 304.985 359.742 310.963 357.96 320.167C355.862 331.001 345.727 336.598 329.811 333.517C312.65 330.193 305.287 319.418 306.392 309.088L281.368 304.242Z" fill="black"/>
	<path d="M479.926 90.0566L460.857 64.9048L395.009 395.635L414.461 422.812L479.926 90.0566Z" fill="#EFEFEF"/>
	<path d="M396.007 395.692L65.1895 331.342L90.6896 357.87L413.579 420.757L396.007 395.692Z" fill="#DFDFDF"/>
	<defs>
	<filter id="filter0_f_449_1128" x="0.00195312" y="350" width="584" height="254" filterUnits="userSpaceOnUse" color-interpolation-filters="sRGB">
	<feFlood flood-opacity="0" result="BackgroundImageFix"/>
	<feBlend mode="normal" in="SourceGraphic" in2="BackgroundImageFix" result="shape"/>
	<feGaussianBlur stdDeviation="50" result="effect1_foregroundBlur_449_1128"/>
	</filter>
	</defs>
	</svg>
	