<svg width="172" height="24" viewBox="0 0 172 24" fill="none" xmlns="http://www.w3.org/2000/svg">
<path d="M7.296 4.824H0.128V0.599998H19.648V4.824H12.48V23H7.296V4.824ZM42.9813 18.84V23H25.6373V0.599998H42.5653V4.76H30.7893V9.624H41.1893V13.656H30.7893V18.84H42.9813ZM61.0915 23.384C58.7662 23.384 56.6648 22.8827 54.7875 21.88C52.9315 20.8773 51.4702 19.5013 50.4035 17.752C49.3582 15.9813 48.8355 13.9973 48.8355 11.8C48.8355 9.60267 49.3582 7.62933 50.4035 5.88C51.4702 4.10933 52.9315 2.72267 54.7875 1.72C56.6648 0.717333 58.7662 0.216 61.0915 0.216C63.4168 0.216 65.5075 0.717333 67.3635 1.72C69.2195 2.72267 70.6808 4.10933 71.7475 5.88C72.8142 7.62933 73.3475 9.60267 73.3475 11.8C73.3475 13.9973 72.8142 15.9813 71.7475 17.752C70.6808 19.5013 69.2195 20.8773 67.3635 21.88C65.5075 22.8827 63.4168 23.384 61.0915 23.384ZM61.0915 18.968C62.4142 18.968 63.6088 18.6693 64.6755 18.072C65.7422 17.4533 66.5742 16.6 67.1715 15.512C67.7902 14.424 68.0995 13.1867 68.0995 11.8C68.0995 10.4133 67.7902 9.176 67.1715 8.088C66.5742 7 65.7422 6.15733 64.6755 5.56C63.6088 4.94133 62.4142 4.632 61.0915 4.632C59.7688 4.632 58.5742 4.94133 57.5075 5.56C56.4408 6.15733 55.5982 7 54.9795 8.088C54.3822 9.176 54.0835 10.4133 54.0835 11.8C54.0835 13.1867 54.3822 14.424 54.9795 15.512C55.5982 16.6 56.4408 17.4533 57.5075 18.072C58.5742 18.6693 59.7688 18.968 61.0915 18.968ZM100.987 0.599998V23H96.7315L85.5635 9.4V23H80.4435V0.599998H84.7315L95.8675 14.2V0.599998H100.987ZM109.487 0.599998H114.671V23H109.487V0.599998ZM133.907 23.384C131.625 23.384 129.555 22.8933 127.699 21.912C125.865 20.9093 124.414 19.5333 123.347 17.784C122.302 16.0133 121.779 14.0187 121.779 11.8C121.779 9.58133 122.302 7.59733 123.347 5.848C124.414 4.07733 125.865 2.70133 127.699 1.72C129.555 0.717333 131.635 0.216 133.939 0.216C135.881 0.216 137.63 0.557333 139.187 1.24C140.766 1.92267 142.089 2.904 143.155 4.184L139.827 7.256C138.313 5.50667 136.435 4.632 134.195 4.632C132.809 4.632 131.571 4.94133 130.483 5.56C129.395 6.15733 128.542 7 127.923 8.088C127.326 9.176 127.027 10.4133 127.027 11.8C127.027 13.1867 127.326 14.424 127.923 15.512C128.542 16.6 129.395 17.4533 130.483 18.072C131.571 18.6693 132.809 18.968 134.195 18.968C136.435 18.968 138.313 18.0827 139.827 16.312L143.155 19.384C142.089 20.6853 140.766 21.6773 139.187 22.36C137.609 23.0427 135.849 23.384 133.907 23.384ZM164.17 18.2H153.77L151.786 23H146.474L156.458 0.599998H161.578L171.594 23H166.154L164.17 18.2ZM162.538 14.264L158.986 5.688L155.434 14.264H162.538Z" fill="black"/>
</svg>
