<svg width="32" height="32" viewBox="0 0 32 32" fill="none" xmlns="http://www.w3.org/2000/svg">
    <path d="M14.3335 6.00008H19.3335L24.8169 0.500077C24.9718 0.343863 25.1562 0.219873 25.3593 0.135258C25.5624 0.0506438 25.7802 0.00708008 26.0002 0.00708008C26.2202 0.00708008 26.4381 0.0506438 26.6412 0.135258C26.8443 0.219873 27.0286 0.343863 27.1835 0.500077L31.4835 4.81674C31.794 5.12901 31.9682 5.55143 31.9682 5.99174C31.9682 6.43205 31.794 6.85447 31.4835 7.16674L27.6669 11.0001H14.3335V14.3334C14.3335 14.7754 14.158 15.1994 13.8454 15.5119C13.5328 15.8245 13.1089 16.0001 12.6669 16.0001C12.2249 16.0001 11.8009 15.8245 11.4884 15.5119C11.1758 15.1994 11.0002 14.7754 11.0002 14.3334V9.33341C11.0002 8.44936 11.3514 7.60151 11.9765 6.97639C12.6016 6.35127 13.4495 6.00008 14.3335 6.00008ZM4.33355 14.3334V21.0001L0.516881 24.8167C0.206463 25.129 0.0322266 25.5514 0.0322266 25.9917C0.0322266 26.4321 0.206463 26.8545 0.516881 27.1667L4.81688 31.4834C4.97182 31.6396 5.15615 31.7636 5.35925 31.8482C5.56235 31.9328 5.78019 31.9764 6.00021 31.9764C6.22023 31.9764 6.43808 31.9328 6.64118 31.8482C6.84427 31.7636 7.02861 31.6396 7.18355 31.4834L14.3335 24.3334H21.0002C21.4422 24.3334 21.8662 24.1578 22.1787 23.8453C22.4913 23.5327 22.6669 23.1088 22.6669 22.6667V21.0001H24.3335C24.7756 21.0001 25.1995 20.8245 25.5121 20.5119C25.8246 20.1994 26.0002 19.7754 26.0002 19.3334V17.6667H27.6669C28.1089 17.6667 28.5328 17.4911 28.8454 17.1786C29.158 16.866 29.3335 16.4421 29.3335 16.0001V14.3334H17.6669V16.0001C17.6669 16.8841 17.3157 17.732 16.6906 18.3571C16.0654 18.9822 15.2176 19.3334 14.3335 19.3334H11.0002C10.1162 19.3334 9.26831 18.9822 8.64319 18.3571C8.01807 17.732 7.66688 16.8841 7.66688 16.0001V11.0001L4.33355 14.3334Z" fill="#58DFB1"/>
    </svg>
    